<?xml version="1.0" standalone="no"?>
<!DOCTYPE svg PUBLIC "-//W3C//DTD SVG 20010904//EN"
 "http://www.w3.org/TR/2001/REC-SVG-20010904/DTD/svg10.dtd">
<svg version="1.0" xmlns="http://www.w3.org/2000/svg"
 width="700.000000pt" height="700.000000pt" viewBox="0 0 700.000000 700.000000"
 preserveAspectRatio="xMidYMid meet">
<metadata>
Created by potrace 1.11, written by Peter Selinger 2001-2013
</metadata>
<g transform="translate(0.000000,700.000000) scale(0.100000,-0.100000)"
fill="#000000" stroke="none">
<path d="M3330 6785 c-306 -60 -558 -249 -694 -522 -20 -39 -36 -78 -36 -85 0
-8 -4 -18 -9 -23 -18 -20 -50 -173 -54 -262 -1 -29 -4 -53 -7 -53 -3 0 -23 17
-45 37 -106 95 -245 168 -400 209 -85 23 -120 26 -235 26 -114 0 -151 -4 -235
-26 -698 -186 -961 -1012 -498 -1563 25 -29 43 -53 41 -54 -2 -1 -28 -3 -59
-4 -132 -8 -326 -71 -427 -137 -24 -15 -47 -28 -53 -28 -5 0 -9 -4 -9 -8 0 -4
-12 -15 -28 -24 -44 -26 -145 -130 -194 -199 -109 -154 -164 -301 -184 -489
-9 -88 -9 -2482 0 -2545 25 -167 92 -335 182 -454 89 -118 235 -236 365 -295
83 -38 224 -76 308 -82 107 -9 4800 -9 4889 0 84 8 221 45 301 82 180 82 359
253 450 431 47 94 85 224 97 333 9 82 9 2394 0 2512 -22 297 -163 551 -401
723 -149 107 -347 175 -522 179 -18 0 -33 2 -33 4 0 2 20 27 43 55 89 106 157
229 192 350 99 342 8 704 -240 953 -44 44 -107 99 -140 121 -321 216 -728 223
-1060 20 -37 -23 -131 -95 -144 -111 -21 -25 -26 -19 -28 32 -3 122 -46 277
-110 397 -128 245 -374 431 -646 491 -93 21 -293 25 -377 9z"/>
</g>
</svg>
